# xmcd CD database file
#
# Track frame offsets:
#	150
#	26220
#	53279
#	72223
#	95613
#	123772
#	145524
#	169095
#	192904
#	215892
#	238007
#	257638
#	285083
#
# Disc length: 4160 seconds
#
# Revision: 24
# Processed by: cddbd v1.5.2PL0 Copyright (c) Steve Scherf et al.
# Submitted via: CDex 1.70beta2
#
DISCID=b2103e0d
DTITLE=KOTOKO - 硝子の靡風
DYEAR=2005
DGENRE=Rock
TTITLE0=RETRIEVE
TTITLE1=Wing my Way
TTITLE2=覚えてていいよ
TTITLE3=ため息クローバー
TTITLE4=Meconopsis
TTITLE5=ささくれ
TTITLE6=琥珀
TTITLE7=Re-sublimity
TTITLE8=硝子の靡風
TTITLE9=421 -a will-
TTITLE10=Free Angels
TTITLE11=β-粘土の惑星
TTITLE12=赤い玉、青い玉
EXTD=YEAR: 2005
EXTT0=
EXTT1=
EXTT2=
EXTT3=
EXTT4=
EXTT5=
EXTT6=
EXTT7=
EXTT8=
EXTT9=
EXTT10=
EXTT11=
EXTT12=
PLAYORDER=
